<?xml version="1.0" encoding="utf-8"?>
<!-- Generator: Adobe Illustrator 28.0.0, SVG Export Plug-In . SVG Version: 6.00 Build 0)  -->
<svg version="1.1" id="Capa_1" xmlns="http://www.w3.org/2000/svg" xmlns:xlink="http://www.w3.org/1999/xlink" x="0px" y="0px"
	 viewBox="0 0 800 800" style="enable-background:new 0 0 800 800;" xml:space="preserve">
<style type="text/css">
	.st0{fill:#FFFFFF;}
	.st1{fill:#5425DE;}
	.st2{fill-rule:evenodd;clip-rule:evenodd;fill:#5425DE;}
</style>
<circle class="st0" cx="400.5" cy="400.3" r="352"/>
<g id="SVGRepo_bgCarrier">
</g>
<g id="SVGRepo_iconCarrier">
	<g>
		<path class="st1" d="M589.5,261.3c14.6,14.6,14.6,38.4,0,53l-225,225c-14.6,14.6-38.4,14.6-53,0l-100-100
			c-14.1-15.2-13.3-38.9,1.9-53c14.4-13.4,36.7-13.4,51.1,0l73.5,73.5l198.5-198.5C551.1,246.7,574.9,246.7,589.5,261.3L589.5,261.3
			z"/>
		<path class="st2" d="M0.5,400.3c0-220.9,179.1-400,400-400s400,179.1,400,400s-179.1,400-400,400S0.5,621.2,0.5,400.3z
			 M400.5,75.3c-179.5,0-325,145.5-325,325s145.5,325,325,325s325-145.5,325-325S580,75.3,400.5,75.3z"/>
	</g>
</g>
</svg>
